<svg xmlns="http://www.w3.org/2000/svg" viewBox="0 0 3678.08 640.66"><defs><style>.cls-1{fill:#231f20;}</style></defs><g id="Layer_2" data-name="Layer 2"><g id="Layer_1-2" data-name="Layer 1"><path class="cls-1" d="M1314.8,7.88l306.1,520.39V7.88h57V634.82h-57L1316,112V634.82h-53.29a25.09,25.09,0,0,1-3.72-3.71V7.88Z"/><path class="cls-1" d="M1857.6,7.88l306.1,520.39V11.59a24.62,24.62,0,0,1,3.72-3.71h53.28V634.82h-53.28c-1.88,0-9-11.54-10.67-14.11L1858.84,109.48V634.82h-54.53V7.88Z"/><path class="cls-1" d="M864.45,1.18c375.18-28.07,392.19,612.92,46.32,638.57C528.62,668.09,510.48,27.67,864.45,1.18ZM857,58.12C603.72,85,603.75,564.53,866.22,585.22,1181.35,610.07,1183.27,23.53,857,58.12Z"/><path class="cls-1" d="M525.38,191.25H460.94C439.82,128.7,388.08,75.12,322.23,61.07,4.14-6.82-32.77,540.81,239.42,582.48c101,15.46,186.22-37.79,222.76-131h63.2c-57.94,207-329.21,256.76-459.55,84-85.4-113.17-86.65-298-9.92-415.89C179.38-70,466.68-24.76,525.38,191.25Z"/><path class="cls-1" d="M3244.34,191.25h-63.2c-28.56-70.13-79.6-121.47-156.82-133.14-304-45.93-332.86,485-66,524.37,101.56,15,185.46-37.46,222.77-131h63.2c-60.88,211.66-340.58,257.71-467,74.11C2704.53,419.77,2700,254.77,2760.6,142.5,2875.22-69.73,3178.43-37.85,3244.34,191.25Z"/><path class="cls-1" d="M2634.62,7.88v52h-233V292.85h210.67v52H2401.64V579.07a24.62,24.62,0,0,0,3.72,3.71h229.26v52H2347.11V7.88Z"/><polygon class="cls-1" points="3678.08 7.88 3678.08 59.91 3524.41 59.91 3524.41 634.82 3469.89 634.82 3469.89 59.91 3316.22 59.91 3316.22 7.88 3678.08 7.88"/></g></g></svg>