<svg xmlns="http://www.w3.org/2000/svg" viewBox="0 0 3697.98 915.72"><defs><style>.cls-1{fill:#231f20;}</style></defs><g id="Layer_2" data-name="Layer 2"><g id="Layer_1-2" data-name="Layer 1"><path class="cls-1" d="M677.88,12.48,1041,562.61V16.19a25,25,0,0,1,3.71-3.71h214.4V903.34a25.16,25.16,0,0,1-3.72,3.72H1044.7l-9.24-10.58L679.12,356.93V903.34a25.16,25.16,0,0,1-3.72,3.72H464.73a24.69,24.69,0,0,1-3.72-3.72V16.19a24.62,24.62,0,0,1,3.72-3.71Z"/><path class="cls-1" d="M3698,904.58H3467.47L3411.8,748.29l-326.92.51-53.63,155.78h-228L3124.18,14.94l7.31-2.6h238.22l7.33,2.58ZM3140.31,580h218.11L3248.15,257.79Z"/><path class="cls-1" d="M2072.06,267.72H1840.31c-5.37-8.5-5-20.42-8.58-31.07-28.06-83.26-182.87-86.52-188.45,12.55-3.7,65.69,63.57,87.72,113.39,107.1,137.06,53.31,319.17,86.52,327.9,269.38,17.71,371.21-612.22,380-668.65,61.4-2.8-15.8-2.19-32-5.63-47.65h233c3.46,82.94,81.86,117.73,155.6,94.85,49.41-15.33,73.36-67.87,49-114.82-29.57-57-174.84-86.76-235-109.52-133.75-50.62-214.53-125.44-197.35-280.31,23.71-213.85,287.57-262.57,460.1-210.37C1989.07,53.56,2071.72,145.57,2072.06,267.72Z"/><path class="cls-1" d="M2880.06,12.48V188.42H2644.6V903.34a25.16,25.16,0,0,1-3.72,3.72H2430.21a24.69,24.69,0,0,1-3.72-3.72V188.42H2191V12.48Z"/><path class="cls-1" d="M218.11,12.48V903.34a24.69,24.69,0,0,1-3.72,3.72H3.72A24.69,24.69,0,0,1,0,903.34V16.19a24.62,24.62,0,0,1,3.72-3.71Z"/></g></g></svg>