<svg xmlns="http://www.w3.org/2000/svg" viewBox="0 0 7529.69 768.06"><defs><style>.cls-1{fill:#231f20;}</style></defs><g id="Layer_2" data-name="Layer 2"><g id="Layer_1-2" data-name="Layer 1"><path class="cls-1" d="M568.57,10.47,873.12,471.88V13.58a20.85,20.85,0,0,1,3.12-3.11h179.82v747.2a20.92,20.92,0,0,1-3.12,3.12H876.24l-7.76-8.88L569.61,299.37v458.3a20.92,20.92,0,0,1-3.12,3.12H389.79a20.92,20.92,0,0,1-3.12-3.12V13.58a20.85,20.85,0,0,1,3.12-3.11Z"/><path class="cls-1" d="M3101.65,758.71H2908.32l-46.69-131.09-274.21.43-45,130.66H2351.19l269.2-746.18,6.13-2.18h199.8l6.15,2.16ZM2633.91,486.43h182.94l-92.49-270.21Z"/><path class="cls-1" d="M1737.92,224.55H1543.55c-4.51-7.13-4.18-17.13-7.2-26.06C1512.82,128.65,1383,125.92,1378.29,209c-3.1,55.09,53.32,73.57,95.11,89.82,114.95,44.72,267.7,72.58,275,225.94,14.86,311.35-513.49,318.72-560.83,51.5-2.35-13.25-1.83-26.84-4.72-40h195.41c2.9,69.58,68.66,98.75,130.51,79.57,41.44-12.86,61.53-56.93,41.11-96.31-24.8-47.83-146.64-72.77-197.08-91.86C1240.65,385.25,1172.89,322.5,1187.3,192.6c19.89-179.37,241.2-220.23,385.91-176.45C1668.32,44.93,1737.64,122.1,1737.92,224.55Z"/><path class="cls-1" d="M2415.63,10.47V158H2218.14V757.67a20.92,20.92,0,0,1-3.12,3.12h-176.7a20.92,20.92,0,0,1-3.12-3.12V158H1837.71V10.47Z"/><path class="cls-1" d="M182.94,10.47v747.2a20.92,20.92,0,0,1-3.12,3.12H3.12A20.92,20.92,0,0,1,0,757.67V13.58a20.85,20.85,0,0,1,3.12-3.11Z"/><path class="cls-1" d="M4779.69,19.63l356.18,605.55V19.63h66.34V749.17h-66.34L4781.13,140.74V749.17h-62a28.59,28.59,0,0,1-4.33-4.33V19.63Z"/><path class="cls-1" d="M5411.31,19.63,5767.5,625.18V24a29.4,29.4,0,0,1,4.32-4.32h62V749.17h-62c-2.18,0-10.46-13.44-12.41-16.43L5412.75,137.85V749.17H5349.3V19.63Z"/><path class="cls-1" d="M4255.64,11.84c436.58-32.66,456.37,713.21,53.9,743.06C3864.86,787.87,3843.76,42.66,4255.64,11.84Zm-8.72,66.26c-294.67,31.23-294.63,589.27,10.79,613.35C4624.4,720.36,4626.63,37.85,4246.92,78.1Z"/><path class="cls-1" d="M3861.1,233h-75c-24.58-72.79-84.79-135.14-161.41-151.49-370.14-79-413.09,558.25-96.36,606.74,117.52,18,216.7-44,259.21-152.47h73.55c-67.43,240.83-383.08,298.77-534.76,97.79C3227,501.89,3225.52,286.77,3314.8,149.63,3458.48-71,3792.78-18.35,3861.1,233Z"/><path class="cls-1" d="M7025,233h-73.55C6918.2,151.4,6858.8,91.66,6768.94,78.08c-353.69-53.44-387.32,564.35-76.74,610.18,118.18,17.45,215.82-43.59,259.22-152.47H7025c-70.84,246.29-396.32,299.88-543.39,86.24-84.75-123.1-90.06-315.11-19.51-445.74C6595.45-70.67,6948.27-33.58,7025,233Z"/><path class="cls-1" d="M6315.48,19.63V80.18H6044.37V351.24h245.15v60.55H6044.37v272.5a29,29,0,0,0,4.33,4.32h266.78v60.56H5980.92V19.63Z"/><polygon class="cls-1" points="7529.69 19.63 7529.69 80.18 7350.87 80.18 7350.87 749.17 7287.42 749.17 7287.42 80.18 7108.61 80.18 7108.61 19.63 7529.69 19.63"/></g></g></svg>